<svg width="371" height="176" viewBox="0 0 371 176" fill="none" xmlns="http://www.w3.org/2000/svg">
<g id="Desktop - 2">
<rect width="371" height="176" fill="white"/>
<path id="Morales" d="M103.17 111.455H115.307L128.125 142.727H128.67L141.489 111.455H153.625V158H144.08V127.705H143.693L131.648 157.773H125.148L113.102 127.591H112.716V158H103.17V111.455ZM177.324 158.682C173.794 158.682 170.741 157.932 168.165 156.432C165.604 154.917 163.627 152.811 162.233 150.114C160.839 147.402 160.142 144.258 160.142 140.682C160.142 137.076 160.839 133.924 162.233 131.227C163.627 128.515 165.604 126.409 168.165 124.909C170.741 123.394 173.794 122.636 177.324 122.636C180.854 122.636 183.9 123.394 186.46 124.909C189.036 126.409 191.021 128.515 192.415 131.227C193.809 133.924 194.506 137.076 194.506 140.682C194.506 144.258 193.809 147.402 192.415 150.114C191.021 152.811 189.036 154.917 186.46 156.432C183.9 157.932 180.854 158.682 177.324 158.682ZM177.369 151.182C178.975 151.182 180.316 150.727 181.392 149.818C182.468 148.894 183.278 147.636 183.824 146.045C184.384 144.455 184.665 142.644 184.665 140.614C184.665 138.583 184.384 136.773 183.824 135.182C183.278 133.591 182.468 132.333 181.392 131.409C180.316 130.485 178.975 130.023 177.369 130.023C175.748 130.023 174.384 130.485 173.278 131.409C172.188 132.333 171.362 133.591 170.801 135.182C170.256 136.773 169.983 138.583 169.983 140.614C169.983 142.644 170.256 144.455 170.801 146.045C171.362 147.636 172.188 148.894 173.278 149.818C174.384 150.727 175.748 151.182 177.369 151.182ZM200.801 158V123.091H210.188V129.182H210.551C211.188 127.015 212.256 125.379 213.756 124.273C215.256 123.152 216.983 122.591 218.938 122.591C219.422 122.591 219.945 122.621 220.506 122.682C221.066 122.742 221.559 122.826 221.983 122.932V131.523C221.528 131.386 220.9 131.265 220.097 131.159C219.294 131.053 218.559 131 217.892 131C216.468 131 215.195 131.311 214.074 131.932C212.968 132.538 212.089 133.386 211.438 134.477C210.801 135.568 210.483 136.826 210.483 138.25V158H200.801ZM235.943 158.659C233.716 158.659 231.731 158.273 229.989 157.5C228.246 156.712 226.867 155.553 225.852 154.023C224.852 152.477 224.352 150.553 224.352 148.25C224.352 146.311 224.708 144.682 225.42 143.364C226.133 142.045 227.102 140.985 228.33 140.182C229.557 139.379 230.951 138.773 232.511 138.364C234.087 137.955 235.739 137.667 237.466 137.5C239.496 137.288 241.133 137.091 242.375 136.909C243.617 136.712 244.519 136.424 245.08 136.045C245.64 135.667 245.92 135.106 245.92 134.364V134.227C245.92 132.788 245.466 131.674 244.557 130.886C243.663 130.098 242.39 129.705 240.739 129.705C238.996 129.705 237.61 130.091 236.58 130.864C235.549 131.621 234.867 132.576 234.534 133.727L225.58 133C226.034 130.879 226.928 129.045 228.261 127.5C229.595 125.939 231.314 124.742 233.42 123.909C235.542 123.061 237.996 122.636 240.784 122.636C242.723 122.636 244.58 122.864 246.352 123.318C248.14 123.773 249.723 124.477 251.102 125.432C252.496 126.386 253.595 127.614 254.398 129.114C255.201 130.598 255.602 132.379 255.602 134.455V158H246.42V153.159H246.148C245.587 154.25 244.837 155.212 243.898 156.045C242.958 156.864 241.83 157.508 240.511 157.977C239.193 158.432 237.67 158.659 235.943 158.659ZM238.716 151.977C240.14 151.977 241.398 151.697 242.489 151.136C243.58 150.561 244.436 149.788 245.057 148.818C245.678 147.848 245.989 146.75 245.989 145.523V141.818C245.686 142.015 245.269 142.197 244.739 142.364C244.223 142.515 243.64 142.659 242.989 142.795C242.337 142.917 241.686 143.03 241.034 143.136C240.383 143.227 239.792 143.311 239.261 143.386C238.125 143.553 237.133 143.818 236.284 144.182C235.436 144.545 234.777 145.038 234.307 145.659C233.837 146.265 233.602 147.023 233.602 147.932C233.602 149.25 234.08 150.258 235.034 150.955C236.004 151.636 237.231 151.977 238.716 151.977ZM272.795 111.455V158H263.114V111.455H272.795ZM296.46 158.682C292.869 158.682 289.778 157.955 287.188 156.5C284.612 155.03 282.627 152.955 281.233 150.273C279.839 147.576 279.142 144.386 279.142 140.705C279.142 137.114 279.839 133.962 281.233 131.25C282.627 128.538 284.589 126.424 287.119 124.909C289.665 123.394 292.65 122.636 296.074 122.636C298.377 122.636 300.521 123.008 302.506 123.75C304.506 124.477 306.248 125.576 307.733 127.045C309.233 128.515 310.4 130.364 311.233 132.591C312.066 134.803 312.483 137.394 312.483 140.364V143.023H283.006V137.023H303.369C303.369 135.629 303.066 134.394 302.46 133.318C301.854 132.242 301.013 131.402 299.938 130.795C298.877 130.174 297.642 129.864 296.233 129.864C294.763 129.864 293.46 130.205 292.324 130.886C291.203 131.553 290.324 132.455 289.688 133.591C289.051 134.712 288.725 135.962 288.71 137.341V143.045C288.71 144.773 289.028 146.265 289.665 147.523C290.316 148.78 291.233 149.75 292.415 150.432C293.597 151.114 294.998 151.455 296.619 151.455C297.695 151.455 298.68 151.303 299.574 151C300.468 150.697 301.233 150.242 301.869 149.636C302.506 149.03 302.991 148.288 303.324 147.409L312.278 148C311.824 150.152 310.892 152.03 309.483 153.636C308.089 155.227 306.286 156.47 304.074 157.364C301.877 158.242 299.339 158.682 296.46 158.682ZM347.847 133.045L338.983 133.591C338.831 132.833 338.506 132.152 338.006 131.545C337.506 130.924 336.847 130.432 336.028 130.068C335.225 129.689 334.263 129.5 333.142 129.5C331.642 129.5 330.377 129.818 329.347 130.455C328.316 131.076 327.801 131.909 327.801 132.955C327.801 133.788 328.134 134.492 328.801 135.068C329.468 135.644 330.612 136.106 332.233 136.455L338.551 137.727C341.945 138.424 344.475 139.545 346.142 141.091C347.809 142.636 348.642 144.667 348.642 147.182C348.642 149.47 347.968 151.477 346.619 153.205C345.286 154.932 343.453 156.28 341.119 157.25C338.801 158.205 336.127 158.682 333.097 158.682C328.475 158.682 324.794 157.72 322.051 155.795C319.324 153.856 317.725 151.22 317.256 147.886L326.778 147.386C327.066 148.795 327.763 149.871 328.869 150.614C329.975 151.341 331.392 151.705 333.119 151.705C334.816 151.705 336.18 151.379 337.21 150.727C338.256 150.061 338.786 149.205 338.801 148.159C338.786 147.28 338.415 146.561 337.688 146C336.96 145.424 335.839 144.985 334.324 144.682L328.278 143.477C324.869 142.795 322.331 141.614 320.665 139.932C319.013 138.25 318.188 136.106 318.188 133.5C318.188 131.258 318.794 129.326 320.006 127.705C321.233 126.083 322.953 124.833 325.165 123.955C327.392 123.076 329.998 122.636 332.983 122.636C337.392 122.636 340.862 123.568 343.392 125.432C345.938 127.295 347.422 129.833 347.847 133.045Z" fill="black"/>
<path id="Herbert" d="M18.0767 76V29.4545H27.9176V48.6591H47.8949V29.4545H57.7131V76H47.8949V56.7727H27.9176V76H18.0767ZM81.554 76.6818C77.9631 76.6818 74.8722 75.9545 72.2812 74.5C69.7055 73.0303 67.7206 70.9545 66.3267 68.2727C64.9328 65.5758 64.2358 62.3864 64.2358 58.7045C64.2358 55.1136 64.9328 51.9621 66.3267 49.25C67.7206 46.5379 69.6828 44.4242 72.2131 42.9091C74.7585 41.3939 77.7434 40.6364 81.1676 40.6364C83.4706 40.6364 85.6146 41.0076 87.5994 41.75C89.5994 42.4773 91.3419 43.5758 92.8267 45.0455C94.3267 46.5152 95.4934 48.3636 96.3267 50.5909C97.16 52.803 97.5767 55.3939 97.5767 58.3636V61.0227H68.0994V55.0227H88.4631C88.4631 53.6288 88.16 52.3939 87.554 51.3182C86.9479 50.2424 86.107 49.4015 85.0312 48.7955C83.9706 48.1742 82.7358 47.8636 81.3267 47.8636C79.857 47.8636 78.554 48.2045 77.4176 48.8864C76.2964 49.553 75.4176 50.4545 74.7812 51.5909C74.1449 52.7121 73.8191 53.9621 73.804 55.3409V61.0455C73.804 62.7727 74.1222 64.2652 74.7585 65.5227C75.41 66.7803 76.3267 67.75 77.5085 68.4318C78.6903 69.1136 80.0919 69.4545 81.7131 69.4545C82.7888 69.4545 83.7737 69.303 84.6676 69C85.5616 68.697 86.3267 68.2424 86.9631 67.6364C87.5994 67.0303 88.0843 66.2879 88.4176 65.4091L97.3722 66C96.9176 68.1515 95.9858 70.0303 94.5767 71.6364C93.1828 73.2273 91.3797 74.4697 89.1676 75.3636C86.9706 76.2424 84.4328 76.6818 81.554 76.6818ZM103.895 76V41.0909H113.281V47.1818H113.645C114.281 45.0152 115.349 43.3788 116.849 42.2727C118.349 41.1515 120.077 40.5909 122.031 40.5909C122.516 40.5909 123.039 40.6212 123.599 40.6818C124.16 40.7424 124.652 40.8258 125.077 40.9318V49.5227C124.622 49.3864 123.993 49.2652 123.19 49.1591C122.387 49.053 121.652 49 120.986 49C119.562 49 118.289 49.3106 117.168 49.9318C116.062 50.5379 115.183 51.3864 114.531 52.4773C113.895 53.5682 113.577 54.8258 113.577 56.25V76H103.895ZM130.264 76V29.4545H139.946V46.9545H140.241C140.666 46.0152 141.279 45.0606 142.082 44.0909C142.901 43.1061 143.961 42.2879 145.264 41.6364C146.582 40.9697 148.219 40.6364 150.173 40.6364C152.719 40.6364 155.067 41.303 157.219 42.6364C159.37 43.9545 161.09 45.947 162.378 48.6136C163.666 51.2652 164.31 54.5909 164.31 58.5909C164.31 62.4848 163.681 65.7727 162.423 68.4545C161.181 71.1212 159.484 73.1439 157.332 74.5227C155.196 75.8864 152.802 76.5682 150.151 76.5682C148.272 76.5682 146.673 76.2576 145.355 75.6364C144.052 75.0152 142.984 74.2348 142.151 73.2955C141.317 72.3409 140.681 71.3788 140.241 70.4091H139.81V76H130.264ZM139.741 58.5455C139.741 60.6212 140.029 62.4318 140.605 63.9773C141.181 65.5227 142.014 66.7273 143.105 67.5909C144.196 68.4394 145.522 68.8636 147.082 68.8636C148.658 68.8636 149.991 68.4318 151.082 67.5682C152.173 66.6894 152.999 65.4773 153.56 63.9318C154.135 62.3712 154.423 60.5758 154.423 58.5455C154.423 56.5303 154.143 54.7576 153.582 53.2273C153.022 51.697 152.196 50.5 151.105 49.6364C150.014 48.7727 148.673 48.3409 147.082 48.3409C145.507 48.3409 144.173 48.7576 143.082 49.5909C142.007 50.4242 141.181 51.6061 140.605 53.1364C140.029 54.6667 139.741 56.4697 139.741 58.5455ZM186.679 76.6818C183.088 76.6818 179.997 75.9545 177.406 74.5C174.83 73.0303 172.846 70.9545 171.452 68.2727C170.058 65.5758 169.361 62.3864 169.361 58.7045C169.361 55.1136 170.058 51.9621 171.452 49.25C172.846 46.5379 174.808 44.4242 177.338 42.9091C179.884 41.3939 182.868 40.6364 186.293 40.6364C188.596 40.6364 190.74 41.0076 192.724 41.75C194.724 42.4773 196.467 43.5758 197.952 45.0455C199.452 46.5152 200.618 48.3636 201.452 50.5909C202.285 52.803 202.702 55.3939 202.702 58.3636V61.0227H173.224V55.0227H193.588C193.588 53.6288 193.285 52.3939 192.679 51.3182C192.073 50.2424 191.232 49.4015 190.156 48.7955C189.096 48.1742 187.861 47.8636 186.452 47.8636C184.982 47.8636 183.679 48.2045 182.543 48.8864C181.421 49.553 180.543 50.4545 179.906 51.5909C179.27 52.7121 178.944 53.9621 178.929 55.3409V61.0455C178.929 62.7727 179.247 64.2652 179.884 65.5227C180.535 66.7803 181.452 67.75 182.634 68.4318C183.815 69.1136 185.217 69.4545 186.838 69.4545C187.914 69.4545 188.899 69.303 189.793 69C190.687 68.697 191.452 68.2424 192.088 67.6364C192.724 67.0303 193.209 66.2879 193.543 65.4091L202.497 66C202.043 68.1515 201.111 70.0303 199.702 71.6364C198.308 73.2273 196.505 74.4697 194.293 75.3636C192.096 76.2424 189.558 76.6818 186.679 76.6818ZM209.02 76V41.0909H218.406V47.1818H218.77C219.406 45.0152 220.474 43.3788 221.974 42.2727C223.474 41.1515 225.202 40.5909 227.156 40.5909C227.641 40.5909 228.164 40.6212 228.724 40.6818C229.285 40.7424 229.777 40.8258 230.202 40.9318V49.5227C229.747 49.3864 229.118 49.2652 228.315 49.1591C227.512 49.053 226.777 49 226.111 49C224.687 49 223.414 49.3106 222.293 49.9318C221.187 50.5379 220.308 51.3864 219.656 52.4773C219.02 53.5682 218.702 54.8258 218.702 56.25V76H209.02ZM255.526 41.0909V48.3636H234.503V41.0909H255.526ZM239.276 32.7273H248.957V65.2727C248.957 66.1667 249.094 66.8636 249.366 67.3636C249.639 67.8485 250.018 68.1894 250.503 68.3864C251.003 68.5833 251.579 68.6818 252.23 68.6818C252.685 68.6818 253.139 68.6439 253.594 68.5682C254.048 68.4773 254.397 68.4091 254.639 68.3636L256.162 75.5682C255.677 75.7197 254.995 75.8939 254.116 76.0909C253.238 76.303 252.17 76.4318 250.912 76.4773C248.579 76.5682 246.533 76.2576 244.776 75.5455C243.033 74.8333 241.677 73.7273 240.707 72.2273C239.738 70.7273 239.26 68.8333 239.276 66.5455V32.7273Z" fill="black"/>
<ellipse id="Ellipse 2" cx="177.5" cy="140.5" rx="7.5" ry="10.5" fill="url(#paint0_linear_4_17)"/>
</g>
<defs>
<linearGradient id="paint0_linear_4_17" x1="177.5" y1="130" x2="177.5" y2="151" gradientUnits="userSpaceOnUse">
<stop stop-color="#FF0000"/>
<stop offset="1" stop-color="#FF0000" stop-opacity="0"/>
</linearGradient>
</defs>
</svg>
